<mxfile host="app.diagrams.net" modified="2023-09-25T11:41:41.273Z" agent="Mozilla/5.0 (Macintosh; Intel Mac OS X 10_15_7) AppleWebKit/537.36 (KHTML, like Gecko) Chrome/117.0.0.0 Safari/537.36 Edg/117.0.2045.40" etag="4eaEI8HlhUMiED4ckt39" version="21.8.0" type="github">
  <diagram name="第 1 页" id="vKR55up7a1EwakZo14iR">
    <mxGraphModel dx="1434" dy="796" grid="1" gridSize="10" guides="1" tooltips="1" connect="1" arrows="1" fold="1" page="1" pageScale="1" pageWidth="1169" pageHeight="1654" math="1" shadow="0">
      <root>
        <mxCell id="0" />
        <mxCell id="1" parent="0" />
        <mxCell id="GVi7EbdyDjWJ4DMnfTLp-70" value="" style="endArrow=none;html=1;rounded=0;fontSize=14;fontFamily=Times New Roman;" parent="1" edge="1">
          <mxGeometry width="50" height="50" relative="1" as="geometry">
            <mxPoint x="50" y="678" as="sourcePoint" />
            <mxPoint x="50" y="80" as="targetPoint" />
          </mxGeometry>
        </mxCell>
        <mxCell id="GVi7EbdyDjWJ4DMnfTLp-71" value="$$\varphi$$" style="text;html=1;strokeColor=none;fillColor=none;align=center;verticalAlign=middle;whiteSpace=wrap;rounded=0;fontFamily=Times New Roman;fontSize=14;" parent="1" vertex="1">
          <mxGeometry x="10" y="60" width="60" height="30" as="geometry" />
        </mxCell>
        <mxCell id="GVi7EbdyDjWJ4DMnfTLp-72" value="$$u_2$$" style="text;html=1;strokeColor=none;fillColor=none;align=center;verticalAlign=middle;whiteSpace=wrap;rounded=0;fontFamily=Times New Roman;fontSize=14;" parent="1" vertex="1">
          <mxGeometry x="10" y="110" width="60" height="30" as="geometry" />
        </mxCell>
        <mxCell id="GVi7EbdyDjWJ4DMnfTLp-73" value="$$u_1$$" style="text;html=1;strokeColor=none;fillColor=none;align=center;verticalAlign=middle;whiteSpace=wrap;rounded=0;fontFamily=Times New Roman;fontSize=14;" parent="1" vertex="1">
          <mxGeometry x="10" y="200" width="60" height="30" as="geometry" />
        </mxCell>
        <mxCell id="GVi7EbdyDjWJ4DMnfTLp-74" value="$$u_4$$" style="text;html=1;strokeColor=none;fillColor=none;align=center;verticalAlign=middle;whiteSpace=wrap;rounded=0;fontFamily=Times New Roman;fontSize=14;" parent="1" vertex="1">
          <mxGeometry x="10" y="290" width="60" height="30" as="geometry" />
        </mxCell>
        <mxCell id="GVi7EbdyDjWJ4DMnfTLp-76" value="$$u_3$$" style="text;html=1;strokeColor=none;fillColor=none;align=center;verticalAlign=middle;whiteSpace=wrap;rounded=0;fontFamily=Times New Roman;fontSize=14;" parent="1" vertex="1">
          <mxGeometry x="10" y="470" width="60" height="30" as="geometry" />
        </mxCell>
        <mxCell id="GVi7EbdyDjWJ4DMnfTLp-77" value="$$u_5$$" style="text;html=1;strokeColor=none;fillColor=none;align=center;verticalAlign=middle;whiteSpace=wrap;rounded=0;fontFamily=Times New Roman;fontSize=14;" parent="1" vertex="1">
          <mxGeometry x="10" y="560" width="60" height="30" as="geometry" />
        </mxCell>
        <mxCell id="GVi7EbdyDjWJ4DMnfTLp-199" style="edgeStyle=none;shape=connector;rounded=0;orthogonalLoop=1;jettySize=auto;html=1;exitX=0.5;exitY=0;exitDx=0;exitDy=0;labelBackgroundColor=default;strokeColor=default;align=center;verticalAlign=middle;fontFamily=Times New Roman;fontSize=14;fontColor=default;endArrow=classic;" parent="1" edge="1">
          <mxGeometry relative="1" as="geometry">
            <mxPoint x="436.5" y="120" as="sourcePoint" />
            <mxPoint x="436.5" y="120" as="targetPoint" />
          </mxGeometry>
        </mxCell>
        <mxCell id="GVi7EbdyDjWJ4DMnfTLp-254" style="edgeStyle=none;shape=connector;rounded=0;orthogonalLoop=1;jettySize=auto;html=1;exitX=0.5;exitY=1;exitDx=0;exitDy=0;entryX=0.5;entryY=0;entryDx=0;entryDy=0;labelBackgroundColor=default;strokeColor=default;align=center;verticalAlign=middle;fontFamily=Times New Roman;fontSize=14;fontColor=default;endArrow=classic;" parent="1" source="GVi7EbdyDjWJ4DMnfTLp-218" target="GVi7EbdyDjWJ4DMnfTLp-251" edge="1">
          <mxGeometry relative="1" as="geometry" />
        </mxCell>
        <mxCell id="GVi7EbdyDjWJ4DMnfTLp-218" value="$$v_{b_{1002}}$$" style="ellipse;whiteSpace=wrap;html=1;aspect=fixed;fontFamily=Times New Roman;fontSize=14;fontColor=default;" parent="1" vertex="1">
          <mxGeometry x="505" y="110" width="30" height="30" as="geometry" />
        </mxCell>
        <mxCell id="GVi7EbdyDjWJ4DMnfTLp-266" style="edgeStyle=none;shape=connector;rounded=0;orthogonalLoop=1;jettySize=auto;html=1;exitX=0.5;exitY=1;exitDx=0;exitDy=0;entryX=0.5;entryY=0;entryDx=0;entryDy=0;labelBackgroundColor=default;strokeColor=default;align=center;verticalAlign=middle;fontFamily=Times New Roman;fontSize=14;fontColor=default;endArrow=classic;" parent="1" source="GVi7EbdyDjWJ4DMnfTLp-223" target="GVi7EbdyDjWJ4DMnfTLp-224" edge="1">
          <mxGeometry relative="1" as="geometry" />
        </mxCell>
        <mxCell id="GVi7EbdyDjWJ4DMnfTLp-267" style="edgeStyle=none;shape=connector;rounded=0;orthogonalLoop=1;jettySize=auto;html=1;exitX=0.5;exitY=1;exitDx=0;exitDy=0;labelBackgroundColor=default;strokeColor=default;align=center;verticalAlign=middle;fontFamily=Times New Roman;fontSize=14;fontColor=default;endArrow=classic;" parent="1" source="GVi7EbdyDjWJ4DMnfTLp-223" target="GVi7EbdyDjWJ4DMnfTLp-225" edge="1">
          <mxGeometry relative="1" as="geometry" />
        </mxCell>
        <mxCell id="GVi7EbdyDjWJ4DMnfTLp-268" style="edgeStyle=none;shape=connector;rounded=0;orthogonalLoop=1;jettySize=auto;html=1;exitX=0.5;exitY=1;exitDx=0;exitDy=0;entryX=0.5;entryY=0;entryDx=0;entryDy=0;labelBackgroundColor=default;strokeColor=default;align=center;verticalAlign=middle;fontFamily=Times New Roman;fontSize=14;fontColor=default;endArrow=classic;" parent="1" source="GVi7EbdyDjWJ4DMnfTLp-223" target="GVi7EbdyDjWJ4DMnfTLp-246" edge="1">
          <mxGeometry relative="1" as="geometry" />
        </mxCell>
        <mxCell id="GVi7EbdyDjWJ4DMnfTLp-223" value="$$v_{b_{0}}$$" style="ellipse;whiteSpace=wrap;html=1;aspect=fixed;fontFamily=Times New Roman;fontSize=14;fontColor=default;" parent="1" vertex="1">
          <mxGeometry x="260" y="290" width="30" height="30" as="geometry" />
        </mxCell>
        <mxCell id="GVi7EbdyDjWJ4DMnfTLp-272" style="edgeStyle=none;shape=connector;rounded=0;orthogonalLoop=1;jettySize=auto;html=1;exitX=0.5;exitY=1;exitDx=0;exitDy=0;entryX=0.5;entryY=0;entryDx=0;entryDy=0;labelBackgroundColor=default;strokeColor=default;align=center;verticalAlign=middle;fontFamily=Times New Roman;fontSize=14;fontColor=default;endArrow=classic;" parent="1" source="GVi7EbdyDjWJ4DMnfTLp-224" target="GVi7EbdyDjWJ4DMnfTLp-226" edge="1">
          <mxGeometry relative="1" as="geometry" />
        </mxCell>
        <mxCell id="GVi7EbdyDjWJ4DMnfTLp-273" style="edgeStyle=none;shape=connector;rounded=0;orthogonalLoop=1;jettySize=auto;html=1;exitX=0.5;exitY=1;exitDx=0;exitDy=0;entryX=0.5;entryY=0;entryDx=0;entryDy=0;labelBackgroundColor=default;strokeColor=default;align=center;verticalAlign=middle;fontFamily=Times New Roman;fontSize=14;fontColor=default;endArrow=classic;" parent="1" source="GVi7EbdyDjWJ4DMnfTLp-224" target="GVi7EbdyDjWJ4DMnfTLp-227" edge="1">
          <mxGeometry relative="1" as="geometry" />
        </mxCell>
        <mxCell id="GVi7EbdyDjWJ4DMnfTLp-274" style="edgeStyle=none;shape=connector;rounded=0;orthogonalLoop=1;jettySize=auto;html=1;exitX=0.5;exitY=1;exitDx=0;exitDy=0;entryX=0.5;entryY=0;entryDx=0;entryDy=0;labelBackgroundColor=default;strokeColor=default;align=center;verticalAlign=middle;fontFamily=Times New Roman;fontSize=14;fontColor=default;endArrow=classic;" parent="1" source="GVi7EbdyDjWJ4DMnfTLp-224" target="GVi7EbdyDjWJ4DMnfTLp-228" edge="1">
          <mxGeometry relative="1" as="geometry" />
        </mxCell>
        <mxCell id="GVi7EbdyDjWJ4DMnfTLp-224" value="$$v_{a_{0}}$$" style="ellipse;whiteSpace=wrap;html=1;aspect=fixed;fontFamily=Times New Roman;fontSize=14;fontColor=default;" parent="1" vertex="1">
          <mxGeometry x="110" y="380" width="30" height="30" as="geometry" />
        </mxCell>
        <mxCell id="GVi7EbdyDjWJ4DMnfTLp-275" style="edgeStyle=none;shape=connector;rounded=0;orthogonalLoop=1;jettySize=auto;html=1;exitX=0.5;exitY=1;exitDx=0;exitDy=0;entryX=0.5;entryY=0;entryDx=0;entryDy=0;labelBackgroundColor=default;strokeColor=default;align=center;verticalAlign=middle;fontFamily=Times New Roman;fontSize=14;fontColor=default;endArrow=classic;" parent="1" source="GVi7EbdyDjWJ4DMnfTLp-225" target="GVi7EbdyDjWJ4DMnfTLp-229" edge="1">
          <mxGeometry relative="1" as="geometry" />
        </mxCell>
        <mxCell id="GVi7EbdyDjWJ4DMnfTLp-276" style="edgeStyle=none;shape=connector;rounded=0;orthogonalLoop=1;jettySize=auto;html=1;exitX=0.5;exitY=1;exitDx=0;exitDy=0;entryX=0.5;entryY=0;entryDx=0;entryDy=0;labelBackgroundColor=default;strokeColor=default;align=center;verticalAlign=middle;fontFamily=Times New Roman;fontSize=14;fontColor=default;endArrow=classic;" parent="1" source="GVi7EbdyDjWJ4DMnfTLp-225" target="GVi7EbdyDjWJ4DMnfTLp-232" edge="1">
          <mxGeometry relative="1" as="geometry" />
        </mxCell>
        <mxCell id="GVi7EbdyDjWJ4DMnfTLp-277" style="edgeStyle=none;shape=connector;rounded=0;orthogonalLoop=1;jettySize=auto;html=1;exitX=0.5;exitY=1;exitDx=0;exitDy=0;entryX=0.5;entryY=0;entryDx=0;entryDy=0;labelBackgroundColor=default;strokeColor=default;align=center;verticalAlign=middle;fontFamily=Times New Roman;fontSize=14;fontColor=default;endArrow=classic;" parent="1" source="GVi7EbdyDjWJ4DMnfTLp-225" target="GVi7EbdyDjWJ4DMnfTLp-233" edge="1">
          <mxGeometry relative="1" as="geometry" />
        </mxCell>
        <mxCell id="GVi7EbdyDjWJ4DMnfTLp-225" value="$$v_{a_{1}}$$" style="ellipse;whiteSpace=wrap;html=1;aspect=fixed;fontFamily=Times New Roman;fontSize=14;fontColor=default;" parent="1" vertex="1">
          <mxGeometry x="260" y="380" width="30" height="30" as="geometry" />
        </mxCell>
        <mxCell id="u1XHl9gJ4mzJw__E1MkO-171" style="edgeStyle=orthogonalEdgeStyle;rounded=0;orthogonalLoop=1;jettySize=auto;html=1;exitX=0.5;exitY=1;exitDx=0;exitDy=0;entryX=0.5;entryY=0;entryDx=0;entryDy=0;fontSize=14;fontFamily=Times New Roman;" parent="1" source="GVi7EbdyDjWJ4DMnfTLp-226" target="u1XHl9gJ4mzJw__E1MkO-162" edge="1">
          <mxGeometry relative="1" as="geometry" />
        </mxCell>
        <mxCell id="GVi7EbdyDjWJ4DMnfTLp-226" value="$$v_{d_{3}}$$" style="ellipse;whiteSpace=wrap;html=1;aspect=fixed;fontFamily=Times New Roman;fontSize=14;fontColor=default;" parent="1" vertex="1">
          <mxGeometry x="60" y="470" width="30" height="30" as="geometry" />
        </mxCell>
        <mxCell id="u1XHl9gJ4mzJw__E1MkO-172" style="edgeStyle=orthogonalEdgeStyle;rounded=0;orthogonalLoop=1;jettySize=auto;html=1;exitX=0.5;exitY=1;exitDx=0;exitDy=0;entryX=0.5;entryY=0;entryDx=0;entryDy=0;fontSize=14;fontFamily=Times New Roman;" parent="1" source="GVi7EbdyDjWJ4DMnfTLp-227" target="u1XHl9gJ4mzJw__E1MkO-163" edge="1">
          <mxGeometry relative="1" as="geometry" />
        </mxCell>
        <mxCell id="GVi7EbdyDjWJ4DMnfTLp-227" value="$$v_{d_{4}}$$" style="ellipse;whiteSpace=wrap;html=1;aspect=fixed;fontFamily=Times New Roman;fontSize=14;fontColor=default;" parent="1" vertex="1">
          <mxGeometry x="110" y="470" width="30" height="30" as="geometry" />
        </mxCell>
        <mxCell id="u1XHl9gJ4mzJw__E1MkO-173" style="edgeStyle=orthogonalEdgeStyle;rounded=0;orthogonalLoop=1;jettySize=auto;html=1;exitX=0.5;exitY=1;exitDx=0;exitDy=0;entryX=0.5;entryY=0;entryDx=0;entryDy=0;fontSize=14;fontFamily=Times New Roman;" parent="1" source="GVi7EbdyDjWJ4DMnfTLp-228" target="u1XHl9gJ4mzJw__E1MkO-164" edge="1">
          <mxGeometry relative="1" as="geometry" />
        </mxCell>
        <mxCell id="GVi7EbdyDjWJ4DMnfTLp-228" value="$$v_{d_{5}}$$" style="ellipse;whiteSpace=wrap;html=1;aspect=fixed;fontFamily=Times New Roman;fontSize=14;fontColor=default;" parent="1" vertex="1">
          <mxGeometry x="160" y="470" width="30" height="30" as="geometry" />
        </mxCell>
        <mxCell id="GVi7EbdyDjWJ4DMnfTLp-229" value="$$v_{d_{3}}$$" style="ellipse;whiteSpace=wrap;html=1;aspect=fixed;fontFamily=Times New Roman;fontSize=14;fontColor=default;" parent="1" vertex="1">
          <mxGeometry x="210" y="470" width="30" height="30" as="geometry" />
        </mxCell>
        <mxCell id="GVi7EbdyDjWJ4DMnfTLp-232" value="$$v_{d_{4}}$$" style="ellipse;whiteSpace=wrap;html=1;aspect=fixed;fontFamily=Times New Roman;fontSize=14;fontColor=default;" parent="1" vertex="1">
          <mxGeometry x="260" y="470" width="30" height="30" as="geometry" />
        </mxCell>
        <mxCell id="GVi7EbdyDjWJ4DMnfTLp-233" value="$$v_{d_{5}}$$" style="ellipse;whiteSpace=wrap;html=1;aspect=fixed;fontFamily=Times New Roman;fontSize=14;fontColor=default;" parent="1" vertex="1">
          <mxGeometry x="310" y="470" width="30" height="30" as="geometry" />
        </mxCell>
        <mxCell id="GVi7EbdyDjWJ4DMnfTLp-234" value="$$v_{d_{3}}$$" style="ellipse;whiteSpace=wrap;html=1;aspect=fixed;fontFamily=Times New Roman;fontSize=14;fontColor=default;" parent="1" vertex="1">
          <mxGeometry x="360" y="470" width="30" height="30" as="geometry" />
        </mxCell>
        <mxCell id="GVi7EbdyDjWJ4DMnfTLp-235" value="$$v_{d_{4}}$$" style="ellipse;whiteSpace=wrap;html=1;aspect=fixed;fontFamily=Times New Roman;fontSize=14;fontColor=default;" parent="1" vertex="1">
          <mxGeometry x="410" y="470" width="30" height="30" as="geometry" />
        </mxCell>
        <mxCell id="GVi7EbdyDjWJ4DMnfTLp-236" value="$$v_{d_{5}}$$" style="ellipse;whiteSpace=wrap;html=1;aspect=fixed;fontFamily=Times New Roman;fontSize=14;fontColor=default;" parent="1" vertex="1">
          <mxGeometry x="460" y="470" width="30" height="30" as="geometry" />
        </mxCell>
        <mxCell id="GVi7EbdyDjWJ4DMnfTLp-290" style="edgeStyle=none;shape=connector;rounded=0;orthogonalLoop=1;jettySize=auto;html=1;exitX=0.5;exitY=1;exitDx=0;exitDy=0;entryX=0.5;entryY=0;entryDx=0;entryDy=0;labelBackgroundColor=default;strokeColor=default;align=center;verticalAlign=middle;fontFamily=Times New Roman;fontSize=14;fontColor=default;endArrow=classic;" parent="1" source="GVi7EbdyDjWJ4DMnfTLp-237" target="GVi7EbdyDjWJ4DMnfTLp-257" edge="1">
          <mxGeometry relative="1" as="geometry" />
        </mxCell>
        <mxCell id="GVi7EbdyDjWJ4DMnfTLp-237" value="$$v_{d_{3}}$$" style="ellipse;whiteSpace=wrap;html=1;aspect=fixed;fontFamily=Times New Roman;fontSize=14;fontColor=default;" parent="1" vertex="1">
          <mxGeometry x="550" y="470" width="30" height="30" as="geometry" />
        </mxCell>
        <mxCell id="GVi7EbdyDjWJ4DMnfTLp-291" style="edgeStyle=none;shape=connector;rounded=0;orthogonalLoop=1;jettySize=auto;html=1;exitX=0.5;exitY=1;exitDx=0;exitDy=0;entryX=0.5;entryY=0;entryDx=0;entryDy=0;labelBackgroundColor=default;strokeColor=default;align=center;verticalAlign=middle;fontFamily=Times New Roman;fontSize=14;fontColor=default;endArrow=classic;" parent="1" source="GVi7EbdyDjWJ4DMnfTLp-238" target="GVi7EbdyDjWJ4DMnfTLp-258" edge="1">
          <mxGeometry relative="1" as="geometry" />
        </mxCell>
        <mxCell id="GVi7EbdyDjWJ4DMnfTLp-238" value="$$v_{d_{4}}$$" style="ellipse;whiteSpace=wrap;html=1;aspect=fixed;fontFamily=Times New Roman;fontSize=14;fontColor=default;" parent="1" vertex="1">
          <mxGeometry x="600" y="470" width="30" height="30" as="geometry" />
        </mxCell>
        <mxCell id="GVi7EbdyDjWJ4DMnfTLp-292" style="edgeStyle=none;shape=connector;rounded=0;orthogonalLoop=1;jettySize=auto;html=1;exitX=0.5;exitY=1;exitDx=0;exitDy=0;entryX=0.5;entryY=0;entryDx=0;entryDy=0;labelBackgroundColor=default;strokeColor=default;align=center;verticalAlign=middle;fontFamily=Times New Roman;fontSize=14;fontColor=default;endArrow=classic;" parent="1" source="GVi7EbdyDjWJ4DMnfTLp-239" target="GVi7EbdyDjWJ4DMnfTLp-259" edge="1">
          <mxGeometry relative="1" as="geometry" />
        </mxCell>
        <mxCell id="GVi7EbdyDjWJ4DMnfTLp-239" value="$$v_{d_{5}}$$" style="ellipse;whiteSpace=wrap;html=1;aspect=fixed;fontFamily=Times New Roman;fontSize=14;fontColor=default;" parent="1" vertex="1">
          <mxGeometry x="650" y="470" width="30" height="30" as="geometry" />
        </mxCell>
        <mxCell id="GVi7EbdyDjWJ4DMnfTLp-293" style="edgeStyle=none;shape=connector;rounded=0;orthogonalLoop=1;jettySize=auto;html=1;exitX=0.5;exitY=1;exitDx=0;exitDy=0;entryX=0.5;entryY=0;entryDx=0;entryDy=0;labelBackgroundColor=default;strokeColor=default;align=center;verticalAlign=middle;fontFamily=Times New Roman;fontSize=14;fontColor=default;endArrow=classic;" parent="1" source="GVi7EbdyDjWJ4DMnfTLp-240" target="GVi7EbdyDjWJ4DMnfTLp-260" edge="1">
          <mxGeometry relative="1" as="geometry" />
        </mxCell>
        <mxCell id="GVi7EbdyDjWJ4DMnfTLp-240" value="$$v_{d_{3}}$$" style="ellipse;whiteSpace=wrap;html=1;aspect=fixed;fontFamily=Times New Roman;fontSize=14;fontColor=default;" parent="1" vertex="1">
          <mxGeometry x="700" y="470" width="30" height="30" as="geometry" />
        </mxCell>
        <mxCell id="GVi7EbdyDjWJ4DMnfTLp-294" style="edgeStyle=none;shape=connector;rounded=0;orthogonalLoop=1;jettySize=auto;html=1;exitX=0.5;exitY=1;exitDx=0;exitDy=0;entryX=0.5;entryY=0;entryDx=0;entryDy=0;labelBackgroundColor=default;strokeColor=default;align=center;verticalAlign=middle;fontFamily=Times New Roman;fontSize=14;fontColor=default;endArrow=classic;" parent="1" source="GVi7EbdyDjWJ4DMnfTLp-241" target="GVi7EbdyDjWJ4DMnfTLp-261" edge="1">
          <mxGeometry relative="1" as="geometry" />
        </mxCell>
        <mxCell id="GVi7EbdyDjWJ4DMnfTLp-241" value="$$v_{d_{4}}$$" style="ellipse;whiteSpace=wrap;html=1;aspect=fixed;fontFamily=Times New Roman;fontSize=14;fontColor=default;" parent="1" vertex="1">
          <mxGeometry x="750" y="470" width="30" height="30" as="geometry" />
        </mxCell>
        <mxCell id="GVi7EbdyDjWJ4DMnfTLp-296" style="edgeStyle=none;shape=connector;rounded=0;orthogonalLoop=1;jettySize=auto;html=1;exitX=0.5;exitY=1;exitDx=0;exitDy=0;entryX=0.5;entryY=0;entryDx=0;entryDy=0;labelBackgroundColor=default;strokeColor=default;align=center;verticalAlign=middle;fontFamily=Times New Roman;fontSize=14;fontColor=default;endArrow=classic;" parent="1" source="GVi7EbdyDjWJ4DMnfTLp-242" target="GVi7EbdyDjWJ4DMnfTLp-262" edge="1">
          <mxGeometry relative="1" as="geometry" />
        </mxCell>
        <mxCell id="GVi7EbdyDjWJ4DMnfTLp-242" value="$$v_{d_{5}}$$" style="ellipse;whiteSpace=wrap;html=1;aspect=fixed;fontFamily=Times New Roman;fontSize=14;fontColor=default;" parent="1" vertex="1">
          <mxGeometry x="800" y="470" width="30" height="30" as="geometry" />
        </mxCell>
        <mxCell id="GVi7EbdyDjWJ4DMnfTLp-297" style="edgeStyle=none;shape=connector;rounded=0;orthogonalLoop=1;jettySize=auto;html=1;exitX=0.5;exitY=1;exitDx=0;exitDy=0;entryX=0.5;entryY=0;entryDx=0;entryDy=0;labelBackgroundColor=default;strokeColor=default;align=center;verticalAlign=middle;fontFamily=Times New Roman;fontSize=14;fontColor=default;endArrow=classic;" parent="1" source="GVi7EbdyDjWJ4DMnfTLp-243" target="GVi7EbdyDjWJ4DMnfTLp-263" edge="1">
          <mxGeometry relative="1" as="geometry" />
        </mxCell>
        <mxCell id="GVi7EbdyDjWJ4DMnfTLp-243" value="$$v_{d_{3}}$$" style="ellipse;whiteSpace=wrap;html=1;aspect=fixed;fontFamily=Times New Roman;fontSize=14;fontColor=default;" parent="1" vertex="1">
          <mxGeometry x="850" y="470" width="30" height="30" as="geometry" />
        </mxCell>
        <mxCell id="GVi7EbdyDjWJ4DMnfTLp-298" style="edgeStyle=none;shape=connector;rounded=0;orthogonalLoop=1;jettySize=auto;html=1;exitX=0.5;exitY=1;exitDx=0;exitDy=0;entryX=0.5;entryY=0;entryDx=0;entryDy=0;labelBackgroundColor=default;strokeColor=default;align=center;verticalAlign=middle;fontFamily=Times New Roman;fontSize=14;fontColor=default;endArrow=classic;" parent="1" source="GVi7EbdyDjWJ4DMnfTLp-244" target="GVi7EbdyDjWJ4DMnfTLp-264" edge="1">
          <mxGeometry relative="1" as="geometry" />
        </mxCell>
        <mxCell id="GVi7EbdyDjWJ4DMnfTLp-244" value="$$v_{d_{4}}$$" style="ellipse;whiteSpace=wrap;html=1;aspect=fixed;fontFamily=Times New Roman;fontSize=14;fontColor=default;" parent="1" vertex="1">
          <mxGeometry x="900" y="470" width="30" height="30" as="geometry" />
        </mxCell>
        <mxCell id="GVi7EbdyDjWJ4DMnfTLp-299" style="edgeStyle=none;shape=connector;rounded=0;orthogonalLoop=1;jettySize=auto;html=1;exitX=0.5;exitY=1;exitDx=0;exitDy=0;entryX=0.5;entryY=0;entryDx=0;entryDy=0;labelBackgroundColor=default;strokeColor=default;align=center;verticalAlign=middle;fontFamily=Times New Roman;fontSize=14;fontColor=default;endArrow=classic;" parent="1" source="GVi7EbdyDjWJ4DMnfTLp-245" target="GVi7EbdyDjWJ4DMnfTLp-265" edge="1">
          <mxGeometry relative="1" as="geometry" />
        </mxCell>
        <mxCell id="GVi7EbdyDjWJ4DMnfTLp-245" value="$$v_{d_{5}}$$" style="ellipse;whiteSpace=wrap;html=1;aspect=fixed;fontFamily=Times New Roman;fontSize=14;fontColor=default;" parent="1" vertex="1">
          <mxGeometry x="950" y="470" width="30" height="30" as="geometry" />
        </mxCell>
        <mxCell id="GVi7EbdyDjWJ4DMnfTLp-278" style="edgeStyle=none;shape=connector;rounded=0;orthogonalLoop=1;jettySize=auto;html=1;exitX=0.5;exitY=1;exitDx=0;exitDy=0;entryX=0.5;entryY=0;entryDx=0;entryDy=0;labelBackgroundColor=default;strokeColor=default;align=center;verticalAlign=middle;fontFamily=Times New Roman;fontSize=14;fontColor=default;endArrow=classic;" parent="1" source="GVi7EbdyDjWJ4DMnfTLp-246" target="GVi7EbdyDjWJ4DMnfTLp-234" edge="1">
          <mxGeometry relative="1" as="geometry" />
        </mxCell>
        <mxCell id="GVi7EbdyDjWJ4DMnfTLp-279" style="edgeStyle=none;shape=connector;rounded=0;orthogonalLoop=1;jettySize=auto;html=1;exitX=0.5;exitY=1;exitDx=0;exitDy=0;entryX=0.5;entryY=0;entryDx=0;entryDy=0;labelBackgroundColor=default;strokeColor=default;align=center;verticalAlign=middle;fontFamily=Times New Roman;fontSize=14;fontColor=default;endArrow=classic;" parent="1" source="GVi7EbdyDjWJ4DMnfTLp-246" target="GVi7EbdyDjWJ4DMnfTLp-235" edge="1">
          <mxGeometry relative="1" as="geometry" />
        </mxCell>
        <mxCell id="GVi7EbdyDjWJ4DMnfTLp-280" style="edgeStyle=none;shape=connector;rounded=0;orthogonalLoop=1;jettySize=auto;html=1;exitX=0.5;exitY=1;exitDx=0;exitDy=0;entryX=0.5;entryY=0;entryDx=0;entryDy=0;labelBackgroundColor=default;strokeColor=default;align=center;verticalAlign=middle;fontFamily=Times New Roman;fontSize=14;fontColor=default;endArrow=classic;" parent="1" source="GVi7EbdyDjWJ4DMnfTLp-246" target="GVi7EbdyDjWJ4DMnfTLp-236" edge="1">
          <mxGeometry relative="1" as="geometry" />
        </mxCell>
        <mxCell id="GVi7EbdyDjWJ4DMnfTLp-246" value="$$v_{a_{1000}}$$" style="ellipse;whiteSpace=wrap;html=1;aspect=fixed;fontFamily=Times New Roman;fontSize=14;fontColor=default;" parent="1" vertex="1">
          <mxGeometry x="410" y="380" width="30" height="30" as="geometry" />
        </mxCell>
        <mxCell id="GVi7EbdyDjWJ4DMnfTLp-281" style="edgeStyle=none;shape=connector;rounded=0;orthogonalLoop=1;jettySize=auto;html=1;exitX=0.5;exitY=1;exitDx=0;exitDy=0;entryX=0.5;entryY=0;entryDx=0;entryDy=0;labelBackgroundColor=default;strokeColor=default;align=center;verticalAlign=middle;fontFamily=Times New Roman;fontSize=14;fontColor=default;endArrow=classic;" parent="1" source="GVi7EbdyDjWJ4DMnfTLp-247" target="GVi7EbdyDjWJ4DMnfTLp-237" edge="1">
          <mxGeometry relative="1" as="geometry" />
        </mxCell>
        <mxCell id="GVi7EbdyDjWJ4DMnfTLp-282" style="edgeStyle=none;shape=connector;rounded=0;orthogonalLoop=1;jettySize=auto;html=1;exitX=0.5;exitY=1;exitDx=0;exitDy=0;entryX=0.5;entryY=0;entryDx=0;entryDy=0;labelBackgroundColor=default;strokeColor=default;align=center;verticalAlign=middle;fontFamily=Times New Roman;fontSize=14;fontColor=default;endArrow=classic;" parent="1" source="GVi7EbdyDjWJ4DMnfTLp-247" target="GVi7EbdyDjWJ4DMnfTLp-238" edge="1">
          <mxGeometry relative="1" as="geometry" />
        </mxCell>
        <mxCell id="GVi7EbdyDjWJ4DMnfTLp-283" style="edgeStyle=none;shape=connector;rounded=0;orthogonalLoop=1;jettySize=auto;html=1;exitX=0.5;exitY=1;exitDx=0;exitDy=0;entryX=0.5;entryY=0;entryDx=0;entryDy=0;labelBackgroundColor=default;strokeColor=default;align=center;verticalAlign=middle;fontFamily=Times New Roman;fontSize=14;fontColor=default;endArrow=classic;" parent="1" source="GVi7EbdyDjWJ4DMnfTLp-247" target="GVi7EbdyDjWJ4DMnfTLp-239" edge="1">
          <mxGeometry relative="1" as="geometry" />
        </mxCell>
        <mxCell id="GVi7EbdyDjWJ4DMnfTLp-247" value="$$v_{a_{0}}$$" style="ellipse;whiteSpace=wrap;html=1;aspect=fixed;fontFamily=Times New Roman;fontSize=14;fontColor=default;" parent="1" vertex="1">
          <mxGeometry x="600" y="380" width="30" height="30" as="geometry" />
        </mxCell>
        <mxCell id="GVi7EbdyDjWJ4DMnfTLp-284" style="edgeStyle=none;shape=connector;rounded=0;orthogonalLoop=1;jettySize=auto;html=1;exitX=0.5;exitY=1;exitDx=0;exitDy=0;entryX=0.5;entryY=0;entryDx=0;entryDy=0;labelBackgroundColor=default;strokeColor=default;align=center;verticalAlign=middle;fontFamily=Times New Roman;fontSize=14;fontColor=default;endArrow=classic;" parent="1" source="GVi7EbdyDjWJ4DMnfTLp-248" target="GVi7EbdyDjWJ4DMnfTLp-240" edge="1">
          <mxGeometry relative="1" as="geometry" />
        </mxCell>
        <mxCell id="GVi7EbdyDjWJ4DMnfTLp-285" style="edgeStyle=none;shape=connector;rounded=0;orthogonalLoop=1;jettySize=auto;html=1;exitX=0.5;exitY=1;exitDx=0;exitDy=0;entryX=0.5;entryY=0;entryDx=0;entryDy=0;labelBackgroundColor=default;strokeColor=default;align=center;verticalAlign=middle;fontFamily=Times New Roman;fontSize=14;fontColor=default;endArrow=classic;" parent="1" source="GVi7EbdyDjWJ4DMnfTLp-248" target="GVi7EbdyDjWJ4DMnfTLp-241" edge="1">
          <mxGeometry relative="1" as="geometry" />
        </mxCell>
        <mxCell id="GVi7EbdyDjWJ4DMnfTLp-286" style="edgeStyle=none;shape=connector;rounded=0;orthogonalLoop=1;jettySize=auto;html=1;exitX=0.5;exitY=1;exitDx=0;exitDy=0;entryX=0.5;entryY=0;entryDx=0;entryDy=0;labelBackgroundColor=default;strokeColor=default;align=center;verticalAlign=middle;fontFamily=Times New Roman;fontSize=14;fontColor=default;endArrow=classic;" parent="1" source="GVi7EbdyDjWJ4DMnfTLp-248" target="GVi7EbdyDjWJ4DMnfTLp-242" edge="1">
          <mxGeometry relative="1" as="geometry" />
        </mxCell>
        <mxCell id="GVi7EbdyDjWJ4DMnfTLp-248" value="$$v_{a_{1}}$$" style="ellipse;whiteSpace=wrap;html=1;aspect=fixed;fontFamily=Times New Roman;fontSize=14;fontColor=default;" parent="1" vertex="1">
          <mxGeometry x="750" y="380" width="30" height="30" as="geometry" />
        </mxCell>
        <mxCell id="GVi7EbdyDjWJ4DMnfTLp-287" style="edgeStyle=none;shape=connector;rounded=0;orthogonalLoop=1;jettySize=auto;html=1;exitX=0.5;exitY=1;exitDx=0;exitDy=0;entryX=0.5;entryY=0;entryDx=0;entryDy=0;labelBackgroundColor=default;strokeColor=default;align=center;verticalAlign=middle;fontFamily=Times New Roman;fontSize=14;fontColor=default;endArrow=classic;" parent="1" source="GVi7EbdyDjWJ4DMnfTLp-249" target="GVi7EbdyDjWJ4DMnfTLp-243" edge="1">
          <mxGeometry relative="1" as="geometry" />
        </mxCell>
        <mxCell id="GVi7EbdyDjWJ4DMnfTLp-288" style="edgeStyle=none;shape=connector;rounded=0;orthogonalLoop=1;jettySize=auto;html=1;exitX=0.5;exitY=1;exitDx=0;exitDy=0;entryX=0.5;entryY=0;entryDx=0;entryDy=0;labelBackgroundColor=default;strokeColor=default;align=center;verticalAlign=middle;fontFamily=Times New Roman;fontSize=14;fontColor=default;endArrow=classic;" parent="1" source="GVi7EbdyDjWJ4DMnfTLp-249" target="GVi7EbdyDjWJ4DMnfTLp-244" edge="1">
          <mxGeometry relative="1" as="geometry" />
        </mxCell>
        <mxCell id="GVi7EbdyDjWJ4DMnfTLp-289" style="edgeStyle=none;shape=connector;rounded=0;orthogonalLoop=1;jettySize=auto;html=1;exitX=0.5;exitY=1;exitDx=0;exitDy=0;entryX=0.5;entryY=0;entryDx=0;entryDy=0;labelBackgroundColor=default;strokeColor=default;align=center;verticalAlign=middle;fontFamily=Times New Roman;fontSize=14;fontColor=default;endArrow=classic;" parent="1" source="GVi7EbdyDjWJ4DMnfTLp-249" target="GVi7EbdyDjWJ4DMnfTLp-245" edge="1">
          <mxGeometry relative="1" as="geometry" />
        </mxCell>
        <mxCell id="GVi7EbdyDjWJ4DMnfTLp-249" value="$$v_{a_{1000}}$$" style="ellipse;whiteSpace=wrap;html=1;aspect=fixed;fontFamily=Times New Roman;fontSize=14;fontColor=default;" parent="1" vertex="1">
          <mxGeometry x="900" y="380" width="30" height="30" as="geometry" />
        </mxCell>
        <mxCell id="GVi7EbdyDjWJ4DMnfTLp-269" style="edgeStyle=none;shape=connector;rounded=0;orthogonalLoop=1;jettySize=auto;html=1;exitX=1;exitY=0.5;exitDx=0;exitDy=0;entryX=0.5;entryY=0;entryDx=0;entryDy=0;labelBackgroundColor=default;strokeColor=default;align=center;verticalAlign=middle;fontFamily=Times New Roman;fontSize=14;fontColor=default;endArrow=classic;" parent="1" source="GVi7EbdyDjWJ4DMnfTLp-250" target="GVi7EbdyDjWJ4DMnfTLp-247" edge="1">
          <mxGeometry relative="1" as="geometry" />
        </mxCell>
        <mxCell id="GVi7EbdyDjWJ4DMnfTLp-270" style="edgeStyle=none;shape=connector;rounded=0;orthogonalLoop=1;jettySize=auto;html=1;exitX=1;exitY=0.5;exitDx=0;exitDy=0;entryX=0.5;entryY=0;entryDx=0;entryDy=0;labelBackgroundColor=default;strokeColor=default;align=center;verticalAlign=middle;fontFamily=Times New Roman;fontSize=14;fontColor=default;endArrow=classic;" parent="1" source="GVi7EbdyDjWJ4DMnfTLp-250" target="GVi7EbdyDjWJ4DMnfTLp-248" edge="1">
          <mxGeometry relative="1" as="geometry" />
        </mxCell>
        <mxCell id="GVi7EbdyDjWJ4DMnfTLp-271" style="edgeStyle=none;shape=connector;rounded=0;orthogonalLoop=1;jettySize=auto;html=1;exitX=1;exitY=0.5;exitDx=0;exitDy=0;entryX=0.5;entryY=0;entryDx=0;entryDy=0;labelBackgroundColor=default;strokeColor=default;align=center;verticalAlign=middle;fontFamily=Times New Roman;fontSize=14;fontColor=default;endArrow=classic;" parent="1" source="GVi7EbdyDjWJ4DMnfTLp-250" target="GVi7EbdyDjWJ4DMnfTLp-249" edge="1">
          <mxGeometry relative="1" as="geometry" />
        </mxCell>
        <mxCell id="GVi7EbdyDjWJ4DMnfTLp-250" value="$$v_{b_{1003}}$$" style="ellipse;whiteSpace=wrap;html=1;aspect=fixed;fontFamily=Times New Roman;fontSize=14;fontColor=default;direction=south;" parent="1" vertex="1">
          <mxGeometry x="750" y="290" width="30" height="30" as="geometry" />
        </mxCell>
        <mxCell id="GVi7EbdyDjWJ4DMnfTLp-255" style="edgeStyle=none;shape=connector;rounded=0;orthogonalLoop=1;jettySize=auto;html=1;exitX=0.5;exitY=1;exitDx=0;exitDy=0;entryX=0.5;entryY=0;entryDx=0;entryDy=0;labelBackgroundColor=default;strokeColor=default;align=center;verticalAlign=middle;fontFamily=Times New Roman;fontSize=14;fontColor=default;endArrow=classic;" parent="1" source="GVi7EbdyDjWJ4DMnfTLp-251" target="GVi7EbdyDjWJ4DMnfTLp-223" edge="1">
          <mxGeometry relative="1" as="geometry" />
        </mxCell>
        <mxCell id="GVi7EbdyDjWJ4DMnfTLp-256" style="edgeStyle=none;shape=connector;rounded=0;orthogonalLoop=1;jettySize=auto;html=1;exitX=0.5;exitY=1;exitDx=0;exitDy=0;entryX=0;entryY=0.5;entryDx=0;entryDy=0;labelBackgroundColor=default;strokeColor=default;align=center;verticalAlign=middle;fontFamily=Times New Roman;fontSize=14;fontColor=default;endArrow=classic;" parent="1" source="GVi7EbdyDjWJ4DMnfTLp-251" target="GVi7EbdyDjWJ4DMnfTLp-250" edge="1">
          <mxGeometry relative="1" as="geometry" />
        </mxCell>
        <mxCell id="GVi7EbdyDjWJ4DMnfTLp-251" value="$$v_{a_{1001}}$$" style="ellipse;whiteSpace=wrap;html=1;aspect=fixed;fontFamily=Times New Roman;fontSize=14;fontColor=default;" parent="1" vertex="1">
          <mxGeometry x="505" y="200" width="30" height="30" as="geometry" />
        </mxCell>
        <mxCell id="GVi7EbdyDjWJ4DMnfTLp-257" value="$$v_{c_{1001}}$$" style="ellipse;whiteSpace=wrap;html=1;aspect=fixed;fontFamily=Times New Roman;fontSize=14;fontColor=default;" parent="1" vertex="1">
          <mxGeometry x="550" y="560" width="30" height="30" as="geometry" />
        </mxCell>
        <mxCell id="GVi7EbdyDjWJ4DMnfTLp-258" value="$$v_{c_{1001}}$$" style="ellipse;whiteSpace=wrap;html=1;aspect=fixed;fontFamily=Times New Roman;fontSize=14;fontColor=default;" parent="1" vertex="1">
          <mxGeometry x="600" y="560" width="30" height="30" as="geometry" />
        </mxCell>
        <mxCell id="GVi7EbdyDjWJ4DMnfTLp-259" value="$$v_{c_{1001}}$$" style="ellipse;whiteSpace=wrap;html=1;aspect=fixed;fontFamily=Times New Roman;fontSize=14;fontColor=default;" parent="1" vertex="1">
          <mxGeometry x="650" y="560" width="30" height="30" as="geometry" />
        </mxCell>
        <mxCell id="GVi7EbdyDjWJ4DMnfTLp-260" value="$$v_{c_{1001}}$$" style="ellipse;whiteSpace=wrap;html=1;aspect=fixed;fontFamily=Times New Roman;fontSize=14;fontColor=default;" parent="1" vertex="1">
          <mxGeometry x="700" y="560" width="30" height="30" as="geometry" />
        </mxCell>
        <mxCell id="GVi7EbdyDjWJ4DMnfTLp-261" value="$$v_{c_{1001}}$$" style="ellipse;whiteSpace=wrap;html=1;aspect=fixed;fontFamily=Times New Roman;fontSize=14;fontColor=default;" parent="1" vertex="1">
          <mxGeometry x="750" y="560" width="30" height="30" as="geometry" />
        </mxCell>
        <mxCell id="GVi7EbdyDjWJ4DMnfTLp-262" value="$$v_{c_{1001}}$$" style="ellipse;whiteSpace=wrap;html=1;aspect=fixed;fontFamily=Times New Roman;fontSize=14;fontColor=default;" parent="1" vertex="1">
          <mxGeometry x="800" y="560" width="30" height="30" as="geometry" />
        </mxCell>
        <mxCell id="GVi7EbdyDjWJ4DMnfTLp-263" value="$$v_{c_{1001}}$$" style="ellipse;whiteSpace=wrap;html=1;aspect=fixed;fontFamily=Times New Roman;fontSize=14;fontColor=default;" parent="1" vertex="1">
          <mxGeometry x="850" y="560" width="30" height="30" as="geometry" />
        </mxCell>
        <mxCell id="GVi7EbdyDjWJ4DMnfTLp-264" value="$$v_{c_{1001}}$$" style="ellipse;whiteSpace=wrap;html=1;aspect=fixed;fontFamily=Times New Roman;fontSize=14;fontColor=default;" parent="1" vertex="1">
          <mxGeometry x="900" y="560" width="30" height="30" as="geometry" />
        </mxCell>
        <mxCell id="GVi7EbdyDjWJ4DMnfTLp-265" value="$$v_{c_{1001}}$$" style="ellipse;whiteSpace=wrap;html=1;aspect=fixed;fontFamily=Times New Roman;fontSize=14;fontColor=default;" parent="1" vertex="1">
          <mxGeometry x="950" y="560" width="30" height="30" as="geometry" />
        </mxCell>
        <mxCell id="GVi7EbdyDjWJ4DMnfTLp-300" value="$$u_0$$" style="text;html=1;strokeColor=none;fillColor=none;align=center;verticalAlign=middle;whiteSpace=wrap;rounded=0;fontFamily=Times New Roman;fontSize=14;" parent="1" vertex="1">
          <mxGeometry x="10" y="380" width="60" height="30" as="geometry" />
        </mxCell>
        <mxCell id="GVi7EbdyDjWJ4DMnfTLp-301" value="......" style="text;html=1;strokeColor=none;fillColor=none;align=center;verticalAlign=middle;whiteSpace=wrap;rounded=0;fontSize=14;fontFamily=Times New Roman;fontColor=default;" parent="1" vertex="1">
          <mxGeometry x="320" y="380" width="60" height="30" as="geometry" />
        </mxCell>
        <mxCell id="GVi7EbdyDjWJ4DMnfTLp-302" value="......" style="text;html=1;strokeColor=none;fillColor=none;align=center;verticalAlign=middle;whiteSpace=wrap;rounded=0;fontSize=14;fontFamily=Times New Roman;fontColor=default;" parent="1" vertex="1">
          <mxGeometry x="810" y="380" width="60" height="30" as="geometry" />
        </mxCell>
        <mxCell id="GVi7EbdyDjWJ4DMnfTLp-306" value="" style="verticalLabelPosition=bottom;verticalAlign=top;html=1;shape=mxgraph.basic.tick;fontFamily=Times New Roman;fontSize=14;fontColor=#000000;fillColor=#ff0000;" parent="1" vertex="1">
          <mxGeometry x="555" y="600" width="20" height="30" as="geometry" />
        </mxCell>
        <mxCell id="GVi7EbdyDjWJ4DMnfTLp-307" value="" style="verticalLabelPosition=bottom;verticalAlign=top;html=1;shape=mxgraph.basic.x;fontFamily=Times New Roman;fontSize=14;fontColor=default;fillColor=#000000;" parent="1" vertex="1">
          <mxGeometry x="605" y="600" width="20" height="30" as="geometry" />
        </mxCell>
        <mxCell id="GVi7EbdyDjWJ4DMnfTLp-308" value="" style="verticalLabelPosition=bottom;verticalAlign=top;html=1;shape=mxgraph.basic.x;fontFamily=Times New Roman;fontSize=14;fontColor=default;fillColor=#000000;" parent="1" vertex="1">
          <mxGeometry x="655" y="600" width="20" height="30" as="geometry" />
        </mxCell>
        <mxCell id="GVi7EbdyDjWJ4DMnfTLp-310" value="" style="verticalLabelPosition=bottom;verticalAlign=top;html=1;shape=mxgraph.basic.x;fontFamily=Times New Roman;fontSize=14;fontColor=default;fillColor=#000000;" parent="1" vertex="1">
          <mxGeometry x="705" y="600" width="20" height="30" as="geometry" />
        </mxCell>
        <mxCell id="GVi7EbdyDjWJ4DMnfTLp-312" value="" style="verticalLabelPosition=bottom;verticalAlign=top;html=1;shape=mxgraph.basic.x;fontFamily=Times New Roman;fontSize=14;fontColor=default;fillColor=#000000;" parent="1" vertex="1">
          <mxGeometry x="755" y="600" width="20" height="30" as="geometry" />
        </mxCell>
        <mxCell id="GVi7EbdyDjWJ4DMnfTLp-314" value="" style="verticalLabelPosition=bottom;verticalAlign=top;html=1;shape=mxgraph.basic.x;fontFamily=Times New Roman;fontSize=14;fontColor=default;fillColor=#000000;" parent="1" vertex="1">
          <mxGeometry x="805" y="600" width="20" height="30" as="geometry" />
        </mxCell>
        <mxCell id="GVi7EbdyDjWJ4DMnfTLp-315" value="" style="verticalLabelPosition=bottom;verticalAlign=top;html=1;shape=mxgraph.basic.x;fontFamily=Times New Roman;fontSize=14;fontColor=default;fillColor=#000000;" parent="1" vertex="1">
          <mxGeometry x="855" y="600" width="20" height="30" as="geometry" />
        </mxCell>
        <mxCell id="GVi7EbdyDjWJ4DMnfTLp-316" value="" style="verticalLabelPosition=bottom;verticalAlign=top;html=1;shape=mxgraph.basic.x;fontFamily=Times New Roman;fontSize=14;fontColor=default;fillColor=#000000;" parent="1" vertex="1">
          <mxGeometry x="905" y="600" width="20" height="30" as="geometry" />
        </mxCell>
        <mxCell id="GVi7EbdyDjWJ4DMnfTLp-317" value="" style="verticalLabelPosition=bottom;verticalAlign=top;html=1;shape=mxgraph.basic.x;fontFamily=Times New Roman;fontSize=14;fontColor=default;fillColor=#000000;" parent="1" vertex="1">
          <mxGeometry x="950" y="600" width="20" height="30" as="geometry" />
        </mxCell>
        <mxCell id="u1XHl9gJ4mzJw__E1MkO-1" value="400" style="rounded=0;whiteSpace=wrap;html=1;fontSize=14;fontFamily=Times New Roman;" parent="1" vertex="1">
          <mxGeometry x="545" y="640" width="40" height="30" as="geometry" />
        </mxCell>
        <mxCell id="u1XHl9gJ4mzJw__E1MkO-2" value="367" style="rounded=0;whiteSpace=wrap;html=1;fontSize=14;fontFamily=Times New Roman;" parent="1" vertex="1">
          <mxGeometry x="595" y="640" width="40" height="30" as="geometry" />
        </mxCell>
        <mxCell id="u1XHl9gJ4mzJw__E1MkO-3" value="350" style="rounded=0;whiteSpace=wrap;html=1;fontSize=14;fontFamily=Times New Roman;" parent="1" vertex="1">
          <mxGeometry x="645" y="640" width="40" height="30" as="geometry" />
        </mxCell>
        <mxCell id="u1XHl9gJ4mzJw__E1MkO-4" value="292" style="rounded=0;whiteSpace=wrap;html=1;fontSize=14;fontFamily=Times New Roman;" parent="1" vertex="1">
          <mxGeometry x="695" y="640" width="40" height="30" as="geometry" />
        </mxCell>
        <mxCell id="u1XHl9gJ4mzJw__E1MkO-5" value="259" style="rounded=0;whiteSpace=wrap;html=1;fontSize=14;fontFamily=Times New Roman;" parent="1" vertex="1">
          <mxGeometry x="745" y="640" width="40" height="30" as="geometry" />
        </mxCell>
        <mxCell id="u1XHl9gJ4mzJw__E1MkO-6" value="242" style="rounded=0;whiteSpace=wrap;html=1;fontSize=14;fontFamily=Times New Roman;" parent="1" vertex="1">
          <mxGeometry x="795" y="640" width="40" height="30" as="geometry" />
        </mxCell>
        <mxCell id="u1XHl9gJ4mzJw__E1MkO-7" value="292" style="rounded=0;whiteSpace=wrap;html=1;fontSize=14;fontFamily=Times New Roman;" parent="1" vertex="1">
          <mxGeometry x="845" y="640" width="40" height="30" as="geometry" />
        </mxCell>
        <mxCell id="u1XHl9gJ4mzJw__E1MkO-8" value="259" style="rounded=0;whiteSpace=wrap;html=1;fontSize=14;fontFamily=Times New Roman;" parent="1" vertex="1">
          <mxGeometry x="895" y="640" width="40" height="30" as="geometry" />
        </mxCell>
        <mxCell id="u1XHl9gJ4mzJw__E1MkO-9" value="242" style="rounded=0;whiteSpace=wrap;html=1;fontSize=14;fontFamily=Times New Roman;" parent="1" vertex="1">
          <mxGeometry x="945" y="640" width="40" height="30" as="geometry" />
        </mxCell>
        <mxCell id="u1XHl9gJ4mzJw__E1MkO-110" value="......" style="text;html=1;strokeColor=none;fillColor=none;align=center;verticalAlign=middle;whiteSpace=wrap;rounded=0;fontSize=14;fontFamily=Times New Roman;fontColor=default;" parent="1" vertex="1">
          <mxGeometry x="810" y="600" width="60" height="30" as="geometry" />
        </mxCell>
        <mxCell id="u1XHl9gJ4mzJw__E1MkO-162" value="$$v_{c_{1001}}$$" style="ellipse;whiteSpace=wrap;html=1;aspect=fixed;fontFamily=Times New Roman;fontSize=14;fontColor=default;" parent="1" vertex="1">
          <mxGeometry x="60" y="560" width="30" height="30" as="geometry" />
        </mxCell>
        <mxCell id="u1XHl9gJ4mzJw__E1MkO-163" value="$$v_{c_{1001}}$$" style="ellipse;whiteSpace=wrap;html=1;aspect=fixed;fontFamily=Times New Roman;fontSize=14;fontColor=default;" parent="1" vertex="1">
          <mxGeometry x="110" y="560" width="30" height="30" as="geometry" />
        </mxCell>
        <mxCell id="u1XHl9gJ4mzJw__E1MkO-164" value="$$v_{c_{1001}}$$" style="ellipse;whiteSpace=wrap;html=1;aspect=fixed;fontFamily=Times New Roman;fontSize=14;fontColor=default;" parent="1" vertex="1">
          <mxGeometry x="160" y="560" width="30" height="30" as="geometry" />
        </mxCell>
        <mxCell id="u1XHl9gJ4mzJw__E1MkO-165" value="" style="verticalLabelPosition=bottom;verticalAlign=top;html=1;shape=mxgraph.basic.x;fontFamily=Times New Roman;fontSize=14;fontColor=default;fillColor=#000000;" parent="1" vertex="1">
          <mxGeometry x="66" y="600" width="20" height="30" as="geometry" />
        </mxCell>
        <mxCell id="u1XHl9gJ4mzJw__E1MkO-166" value="" style="verticalLabelPosition=bottom;verticalAlign=top;html=1;shape=mxgraph.basic.x;fontFamily=Times New Roman;fontSize=14;fontColor=default;fillColor=#000000;" parent="1" vertex="1">
          <mxGeometry x="115" y="600" width="20" height="30" as="geometry" />
        </mxCell>
        <mxCell id="u1XHl9gJ4mzJw__E1MkO-167" value="" style="verticalLabelPosition=bottom;verticalAlign=top;html=1;shape=mxgraph.basic.x;fontFamily=Times New Roman;fontSize=14;fontColor=default;fillColor=#000000;" parent="1" vertex="1">
          <mxGeometry x="165" y="600" width="20" height="30" as="geometry" />
        </mxCell>
        <mxCell id="u1XHl9gJ4mzJw__E1MkO-168" value="305" style="rounded=0;whiteSpace=wrap;html=1;fontSize=14;fontFamily=Times New Roman;" parent="1" vertex="1">
          <mxGeometry x="56" y="640" width="40" height="30" as="geometry" />
        </mxCell>
        <mxCell id="u1XHl9gJ4mzJw__E1MkO-169" value="272" style="rounded=0;whiteSpace=wrap;html=1;fontSize=14;fontFamily=Times New Roman;" parent="1" vertex="1">
          <mxGeometry x="105" y="640" width="40" height="30" as="geometry" />
        </mxCell>
        <mxCell id="u1XHl9gJ4mzJw__E1MkO-170" value="255" style="rounded=0;whiteSpace=wrap;html=1;fontSize=14;fontFamily=Times New Roman;" parent="1" vertex="1">
          <mxGeometry x="155" y="640" width="40" height="30" as="geometry" />
        </mxCell>
      </root>
    </mxGraphModel>
  </diagram>
</mxfile>
